<svg viewBox="0 0 100 120" fill="none" xmlns="http://www.w3.org/2000/svg">
  <!-- Leaves -->
  <path d="M50 5 C50 5, 45 20, 50 30 C55 20, 50 5, 50 5" fill="#7ab87a"/>
  <path d="M35 15 C30 10, 25 15, 30 25 C35 30, 45 28, 45 28 C40 20, 35 15, 35 15" fill="#5a9d5a"/>
  <path d="M65 15 C70 10, 75 15, 70 25 C65 30, 55 28, 55 28 C60 20, 65 15, 65 15" fill="#7ab87a"/>
  <path d="M25 22 C18 18, 12 22, 18 32 C24 38, 38 32, 38 32 C30 26, 25 22, 25 22" fill="#a8d1a8"/>
  <path d="M75 22 C82 18, 88 22, 82 32 C76 38, 62 32, 62 32 C70 26, 75 22, 75 22" fill="#a8d1a8"/>

  <!-- Strawberry body -->
  <path d="M50 30 C20 35, 10 60, 15 80 C20 100, 35 115, 50 115 C65 115, 80 100, 85 80 C90 60, 80 35, 50 30" fill="url(#grad)"/>

  <!-- Seeds -->
  <ellipse cx="35" cy="50" rx="3" ry="4" fill="#f7e3a3"/>
  <ellipse cx="50" cy="45" rx="3" ry="4" fill="#f7e3a3"/>
  <ellipse cx="65" cy="50" rx="3" ry="4" fill="#f7e3a3"/>
  <ellipse cx="30" cy="65" rx="3" ry="4" fill="#f7e3a3"/>
  <ellipse cx="45" cy="60" rx="3" ry="4" fill="#f7e3a3"/>
  <ellipse cx="60" cy="62" rx="3" ry="4" fill="#f7e3a3"/>
  <ellipse cx="70" cy="68" rx="3" ry="4" fill="#f7e3a3"/>
  <ellipse cx="35" cy="80" rx="3" ry="4" fill="#f7e3a3"/>
  <ellipse cx="50" cy="75" rx="3" ry="4" fill="#f7e3a3"/>
  <ellipse cx="65" cy="82" rx="3" ry="4" fill="#f7e3a3"/>
  <ellipse cx="42" cy="92" rx="3" ry="4" fill="#f7e3a3"/>
  <ellipse cx="58" cy="95" rx="3" ry="4" fill="#f7e3a3"/>

  <defs>
    <linearGradient id="grad" x1="50" y1="30" x2="50" y2="115" gradientUnits="userSpaceOnUse">
      <stop offset="0%" stop-color="#f28077"/>
      <stop offset="50%" stop-color="#e85a4f"/>
      <stop offset="100%" stop-color="#d43d32"/>
    </linearGradient>
  </defs>
</svg>
